<?xml version="1.0" encoding="UTF-8"?>
<svg id="Capa_1" xmlns="http://www.w3.org/2000/svg" viewBox="0 0 300 300">
  <defs>
    <style>
      .cls-1 {
        fill: #fff;
        fill-rule: evenodd;
      }

      .cls-2 {
        fill: #2d2d2d;
      }
    </style>
  </defs>
  <circle class="cls-2" cx="152.94" cy="158.93" r="132.86"/>
  <path class="cls-1" d="M154.1,59.25s-39.96,19.6-34.51,77.89l6.77,56.89h0s-19.49,16-19.49,16l4.98,47.96,20.1-10.69,40.28-10.23,21.08,21.55,5.71-47.88-19.24-16.3h0s0,0,0,0l7.64-56.78c6.35-58.2-33.31-78.41-33.31-78.41ZM160.32,179.84c-.03,3.94-3.25,7.12-7.2,7.09-3.94-.03-7.12-3.25-7.09-7.2.03-3.94,3.25-7.12,7.2-7.09,3.94.03,7.12,3.25,7.09,7.2ZM162.58,143.36c-.04,5.04-4.15,9.09-9.19,9.05-5.04-.04-9.09-4.15-9.05-9.19s4.15-9.09,9.19-9.05c5.04.04,9.09,4.15,9.05,9.19Z"/>
</svg>