<?xml version="1.0" encoding="UTF-8"?>
<svg id="Capa_1" xmlns="http://www.w3.org/2000/svg" xmlns:xlink="http://www.w3.org/1999/xlink" viewBox="0 0 72 72">
  <defs>
    <style>
      .cls-1 {
        fill: url(#Degradado_sin_nombre_26-2);
      }

      .cls-2 {
        fill: url(#Degradado_sin_nombre_26-3);
      }

      .cls-3 {
        fill: url(#Degradado_sin_nombre_26-6);
      }

      .cls-4 {
        fill: url(#Degradado_sin_nombre_26-8);
      }

      .cls-5 {
        fill: url(#Degradado_sin_nombre_26-5);
      }

      .cls-6 {
        fill: url(#Degradado_sin_nombre_26-9);
      }

      .cls-7 {
        fill: url(#Degradado_sin_nombre_26-4);
      }

      .cls-8 {
        fill: url(#Degradado_sin_nombre_26-7);
      }

      .cls-9 {
        fill: url(#Degradado_sin_nombre_26);
      }

      .cls-10 {
        fill: #2d2d2d;
      }
    </style>
    <radialGradient id="Degradado_sin_nombre_26" data-name="Degradado sin nombre 26" cx="52.35" cy="36" fx="52.35" fy="36" r="23.91" gradientUnits="userSpaceOnUse">
      <stop offset=".01" stop-color="#abf8f6"/>
      <stop offset=".13" stop-color="#a0f4f4"/>
      <stop offset=".33" stop-color="#82ebf0"/>
      <stop offset=".6" stop-color="#53dde9"/>
      <stop offset=".92" stop-color="#12c9e1"/>
      <stop offset=".99" stop-color="#03c5df"/>
    </radialGradient>
    <radialGradient id="Degradado_sin_nombre_26-2" data-name="Degradado sin nombre 26" cx="25.36" cy="31.42" fx="25.36" fy="31.42" r="23.07" xlink:href="#Degradado_sin_nombre_26"/>
    <radialGradient id="Degradado_sin_nombre_26-3" data-name="Degradado sin nombre 26" cx="66.98" cy="51.93" fx="66.98" fy="51.93" r="4.78" xlink:href="#Degradado_sin_nombre_26"/>
    <radialGradient id="Degradado_sin_nombre_26-4" data-name="Degradado sin nombre 26" cx="25.7" cy="58.74" fx="25.7" fy="58.74" r="17.42" xlink:href="#Degradado_sin_nombre_26"/>
    <radialGradient id="Degradado_sin_nombre_26-5" data-name="Degradado sin nombre 26" cx="37.03" fx="37.03" r="34.1" xlink:href="#Degradado_sin_nombre_26"/>
    <radialGradient id="Degradado_sin_nombre_26-6" data-name="Degradado sin nombre 26" cx="37.03" fx="37.03" r="34.1" xlink:href="#Degradado_sin_nombre_26"/>
    <radialGradient id="Degradado_sin_nombre_26-7" data-name="Degradado sin nombre 26" cx="37.03" fx="37.03" r="34.1" xlink:href="#Degradado_sin_nombre_26"/>
    <radialGradient id="Degradado_sin_nombre_26-8" data-name="Degradado sin nombre 26" cx="37.03" fx="37.03" r="34.1" xlink:href="#Degradado_sin_nombre_26"/>
    <radialGradient id="Degradado_sin_nombre_26-9" data-name="Degradado sin nombre 26" cx="37.03" fx="37.03" r="34.1" xlink:href="#Degradado_sin_nombre_26"/>
  </defs>
  <rect class="cls-10" width="72" height="72" rx="11.32" ry="11.32"/>
  <g>
    <g>
      <path class="cls-9" d="M45.78,64.98h9.61l-2.02,2.02V17.71h4.55v51.46h-12.14s0-4.19,0-4.19ZM53.36,8.32c-.63-.63-.94-1.37-.94-2.24s.31-1.69.94-2.31c.63-.63,1.4-.94,2.31-.94s1.69.31,2.31.94c.63.63.94,1.4.94,2.31s-.31,1.61-.94,2.24c-.63.63-1.4.94-2.31.94s-1.69-.31-2.31-.94Z"/>
      <path class="cls-9" d="M45.78,64.98h9.61l-2.02,2.02V17.71h4.55v51.46h-12.14s0-4.19,0-4.19ZM53.36,8.32c-.63-.63-.94-1.37-.94-2.24s.31-1.69.94-2.31c.63-.63,1.4-.94,2.31-.94s1.69.31,2.31.94c.63.63.94,1.4.94,2.31s-.31,1.61-.94,2.24c-.63.63-1.4.94-2.31.94s-1.69-.31-2.31-.94Z"/>
      <path class="cls-1" d="M41.3,29.63c-2.98-2.19-6.76-3.79-11.33-4.81-2.48-.51-4.35-1.06-5.62-1.67-1.27-.6-1.9-1.38-1.9-2.33,0-.57.25-1.05.76-1.43s1.14-.57,1.9-.57c.89,0,1.62.27,2.19.81s.86,1.22.86,2.05h16.95c0-2.86-.87-5.49-2.62-7.9-1.75-2.41-4.13-4.32-7.14-5.71-3.02-1.4-6.4-2.09-10.14-2.09s-6.82.6-9.81,1.81c-2.99,1.21-5.37,3.02-7.14,5.43-1.78,2.41-2.67,5.33-2.67,8.76,0,4.76,1.55,8.36,4.67,10.81,3.11,2.44,6.95,4.11,11.52,5,2.16.44,3.89.94,5.19,1.48s1.95,1.35,1.95,2.43c0,.64-.32,1.18-.95,1.62-.64.44-1.43.67-2.38.67-1.08,0-1.98-.35-2.71-1.05-.73-.7-1.1-1.55-1.1-2.57H4.93c0,2.98.89,5.73,2.67,8.24,1.78,2.51,4.22,4.51,7.33,6s6.6,2.24,10.47,2.24,7.16-.65,10.24-1.95c3.08-1.3,5.54-3.2,7.38-5.71s2.76-5.51,2.76-9c0-4.82-1.49-8.33-4.48-10.52v-.04Z"/>
      <g>
        <path class="cls-2" d="M72.04,47.43c-2.76.77-6.38,1.76-10.11,2.79v6.21c3.33-.83,6.67-1.68,9.99-2.55l.12-6.44Z"/>
        <path class="cls-7" d="M41.79,60.98h.61c1.65-.35,3.31-.71,4.95-1.08.68-.15,1.35-.31,2.03-.47v-5.75c-3.26.9-5.55,1.54-5.81,1.63-2.61.83-5.3,1.43-7.97,2-3.41.73-6.84,1.35-10.28,1.9-3.32.53-6.65,1-10,1.33-2.34.23-4.2.36-6.74.3-.59-.01-1.69-.11-2.14-.53-.23-.22-.36-.54-.4-.86-.12-.94.34-1.88.7-2.72.1-.22.19-.44.3-.66.23-.47.49-.94.76-1.4-.98-.85-1.88-1.77-2.68-2.76.01.02-1.78,2.79-1.93,3.1-.51,1.03-.9,2.13-1.07,3.28-.29,2.03.21,4.44,1.86,5.79,2.1,1.72,6.06,1.48,8.65,1.41,3.27-.09,6.53-.45,9.78-.89,3.98-.54,7.94-1.22,11.88-1.98,2.51-.48,5.01-.99,7.51-1.52v-.13Z"/>
      </g>
    </g>
    <g>
      <path class="cls-5" d="M45.78,64.98h9.61l-2.02,2.02V17.71h4.55v51.46h-12.14s0-4.19,0-4.19ZM53.36,8.32c-.63-.63-.94-1.37-.94-2.24s.31-1.69.94-2.31c.63-.63,1.4-.94,2.31-.94s1.69.31,2.31.94c.63.63.94,1.4.94,2.31s-.31,1.61-.94,2.24c-.63.63-1.4.94-2.31.94s-1.69-.31-2.31-.94Z"/>
      <path class="cls-3" d="M45.78,64.98h9.61l-2.02,2.02V17.71h4.55v51.46h-12.14s0-4.19,0-4.19ZM53.36,8.32c-.63-.63-.94-1.37-.94-2.24s.31-1.69.94-2.31c.63-.63,1.4-.94,2.31-.94s1.69.31,2.31.94c.63.63.94,1.4.94,2.31s-.31,1.61-.94,2.24c-.63.63-1.4.94-2.31.94s-1.69-.31-2.31-.94Z"/>
      <path class="cls-8" d="M41.3,29.63c-2.98-2.19-6.76-3.79-11.33-4.81-2.48-.51-4.35-1.06-5.62-1.67-1.27-.6-1.9-1.38-1.9-2.33,0-.57.25-1.05.76-1.43s1.14-.57,1.9-.57c.89,0,1.62.27,2.19.81s.86,1.22.86,2.05h16.95c0-2.86-.87-5.49-2.62-7.9-1.75-2.41-4.13-4.32-7.14-5.71-3.02-1.4-6.4-2.09-10.14-2.09s-6.82.6-9.81,1.81c-2.99,1.21-5.37,3.02-7.14,5.43-1.78,2.41-2.67,5.33-2.67,8.76,0,4.76,1.55,8.36,4.67,10.81,3.11,2.44,6.95,4.11,11.52,5,2.16.44,3.89.94,5.19,1.48s1.95,1.35,1.95,2.43c0,.64-.32,1.18-.95,1.62-.64.44-1.43.67-2.38.67-1.08,0-1.98-.35-2.71-1.05-.73-.7-1.1-1.55-1.1-2.57H4.93c0,2.98.89,5.73,2.67,8.24,1.78,2.51,4.22,4.51,7.33,6s6.6,2.24,10.47,2.24,7.16-.65,10.24-1.95c3.08-1.3,5.54-3.2,7.38-5.71s2.76-5.51,2.76-9c0-4.82-1.49-8.33-4.48-10.52v-.04Z"/>
      <g>
        <path class="cls-4" d="M72.04,47.43c-2.76.77-6.38,1.76-10.11,2.79v6.21c3.33-.83,6.67-1.68,9.99-2.55l.12-6.44Z"/>
        <path class="cls-6" d="M41.79,60.98h.61c1.65-.35,3.31-.71,4.95-1.08.68-.15,1.35-.31,2.03-.47v-5.75c-3.26.9-5.55,1.54-5.81,1.63-2.61.83-5.3,1.43-7.97,2-3.41.73-6.84,1.35-10.28,1.9-3.32.53-6.65,1-10,1.33-2.34.23-4.2.36-6.74.3-.59-.01-1.69-.11-2.14-.53-.23-.22-.36-.54-.4-.86-.12-.94.34-1.88.7-2.72.1-.22.19-.44.3-.66.23-.47.49-.94.76-1.4-.98-.85-1.88-1.77-2.68-2.76.01.02-1.78,2.79-1.93,3.1-.51,1.03-.9,2.13-1.07,3.28-.29,2.03.21,4.44,1.86,5.79,2.1,1.72,6.06,1.48,8.65,1.41,3.27-.09,6.53-.45,9.78-.89,3.98-.54,7.94-1.22,11.88-1.98,2.51-.48,5.01-.99,7.51-1.52v-.13Z"/>
      </g>
    </g>
  </g>
</svg>