<?xml version="1.0" encoding="UTF-8"?>
<svg id="Capa_1" xmlns="http://www.w3.org/2000/svg" xmlns:xlink="http://www.w3.org/1999/xlink" viewBox="0 0 420.03 232.5">
  <defs>
    <style>
      .cls-1 {
        fill: url(#linear-gradient-2);
      }

      .cls-2 {
        fill: url(#linear-gradient);
      }

      .cls-3, .cls-4 {
        fill: #2d2d2d;
      }

      .cls-4 {
        fill-rule: evenodd;
      }
    </style>
    <linearGradient id="linear-gradient" x1="118.52" y1="-55.32" x2="118.52" y2="230.97" gradientUnits="userSpaceOnUse">
      <stop offset=".53" stop-color="#abf8f6"/>
      <stop offset=".59" stop-color="#a6f6f5"/>
      <stop offset=".66" stop-color="#98f2f3"/>
      <stop offset=".74" stop-color="#80ebf0"/>
      <stop offset=".82" stop-color="#60e1eb"/>
      <stop offset=".91" stop-color="#36d4e6"/>
      <stop offset=".99" stop-color="#03c5df"/>
      <stop offset="1" stop-color="#00c4df"/>
    </linearGradient>
    <linearGradient id="linear-gradient-2" x1="334.2" y1="54.44" x2="334.2" y2="116.9" xlink:href="#linear-gradient"/>
  </defs>
  <g>
    <path class="cls-3" d="M62.87,165.71h9.61l-2.02,2.02v-49.29h4.55v51.46h-12.14v-4.19ZM70.45,109.05c-.63-.63-.94-1.37-.94-2.24,0-.91.31-1.69.94-2.31.63-.63,1.4-.94,2.31-.94s1.69.31,2.31.94c.63.63.94,1.4.94,2.31,0,.87-.31,1.61-.94,2.24-.63.63-1.4.94-2.31.94s-1.69-.31-2.31-.94Z"/>
    <path class="cls-3" d="M93.47,153.64c-2.96-1.69-5.3-4-7.01-6.94-1.71-2.94-2.57-6.22-2.57-9.83s.85-6.89,2.57-9.83c1.71-2.94,4.05-5.25,7.01-6.94,2.96-1.69,6.27-2.53,9.94-2.53s6.97.84,9.94,2.53c2.96,1.69,5.3,4,7.01,6.94,1.71,2.94,2.57,6.22,2.57,9.83s-.86,6.89-2.57,9.83c-1.71,2.94-4.05,5.25-7.01,6.94s-6.28,2.53-9.94,2.53-6.97-.84-9.94-2.53ZM110.96,149.81c2.24-1.3,4.01-3.08,5.31-5.35,1.3-2.26,1.95-4.79,1.95-7.59s-.65-5.32-1.95-7.59c-1.3-2.26-3.07-4.05-5.31-5.35s-4.76-1.95-7.55-1.95-5.31.65-7.55,1.95c-2.24,1.3-4.01,3.08-5.31,5.35-1.3,2.27-1.95,4.79-1.95,7.59s.65,5.32,1.95,7.59c1.3,2.27,3.07,4.05,5.31,5.35,2.24,1.3,4.76,1.95,7.55,1.95s5.31-.65,7.55-1.95Z"/>
    <path class="cls-3" d="M138.42,154.33c-2.24-1.23-3.97-2.96-5.2-5.2s-1.84-4.83-1.84-7.77v-22.91h4.55v21.68c0,3.52,1.05,6.34,3.14,8.46,2.1,2.12,4.9,3.18,8.42,3.18,2.41,0,4.52-.49,6.32-1.48,1.81-.99,3.22-2.36,4.23-4.12,1.01-1.76,1.52-3.82,1.52-6.18l2.31.58c-.24,3.18-1.04,5.95-2.39,8.31-1.35,2.36-3.17,4.17-5.46,5.42-2.29,1.25-4.93,1.88-7.91,1.88s-5.46-.61-7.7-1.84ZM159.56,118.45h4.55v36.86h-4.55v-36.86Z"/>
    <path class="cls-3" d="M175.39,118.45h4.55v36.86h-4.55v-36.86ZM180.01,125.96c1.3-2.6,3.05-4.6,5.24-6,2.19-1.4,4.71-2.1,7.55-2.1v4.7c-2.6,0-4.88.57-6.83,1.7-1.95,1.13-3.45,2.74-4.48,4.81-1.04,2.07-1.55,4.48-1.55,7.23l-2.24-1.3c.24-3.42,1.01-6.43,2.31-9.03Z"/>
    <path class="cls-3" d="M200.83,118.45h4.55v36.86h-4.55v-36.86ZM226.99,125.31c-2.22-2.22-5.16-3.32-8.82-3.32-2.55,0-4.79.51-6.72,1.52-1.93,1.01-3.42,2.46-4.48,4.34-1.06,1.88-1.59,4.05-1.59,6.5l-2.24-.79c.19-3.28,1-6.11,2.42-8.49,1.42-2.38,3.32-4.23,5.71-5.53,2.38-1.3,5.12-1.95,8.2-1.95s5.72.64,8.06,1.92c2.34,1.28,4.14,3.07,5.42,5.38,1.28,2.31,1.91,4.99,1.91,8.02v22.4h-4.55v-21.1c0-3.71-1.11-6.67-3.32-8.89Z"/>
    <path class="cls-3" d="M252.9,153.64c-2.96-1.69-5.3-4-7.01-6.94-1.71-2.94-2.57-6.22-2.57-9.83s.86-6.89,2.57-9.83c1.71-2.94,4.05-5.25,7.01-6.94,2.96-1.69,6.27-2.53,9.94-2.53s6.9.84,9.87,2.53c2.96,1.69,5.3,4,7.01,6.94,1.71,2.94,2.57,6.22,2.57,9.83,0,.72-.03,1.35-.07,1.88h-35.05v-4.05h31.51l-1.08,2.17v-.58c-.05-2.75-.72-5.23-2.02-7.44-1.3-2.22-3.07-3.95-5.31-5.2-2.24-1.25-4.71-1.88-7.41-1.88s-5.31.65-7.55,1.95-4.01,3.11-5.31,5.42-1.95,4.89-1.95,7.73.65,5.42,1.95,7.73,3.07,4.12,5.31,5.42,4.76,1.95,7.55,1.95c3.18,0,6-.79,8.46-2.38s4.21-3.69,5.28-6.29h4.99c-1.35,3.85-3.7,6.96-7.05,9.32-3.35,2.36-7.24,3.54-11.67,3.54-3.66,0-6.97-.84-9.94-2.53Z"/>
    <path class="cls-3" d="M289.29,164.84h8.82l-1.88,1.3,5.49-11.92v2.1l-17.06-37.87h5.2l14.67,33.24h-1.45l14.67-33.24h5.06l-22.84,50.59h-10.7v-4.19Z"/>
  </g>
  <path class="cls-2" d="M114.5,178.27c-21.93,6.98-85.21,17.15-89.9,12.13-2.15-2.3-.34-6.17.72-8.66.23-.54.46-1.07.72-1.59,3.86-7.79,9.84-14.82,15.59-21.49,5.94-6.84,12.41-13.22,18.81-19.66l.07-2.75c-13.81,9.46-59.23,40.24-43.18,62.07,15.31,20.84,181.91-28.62,205.76-36.19l-52.78-.65c-2.47.85-53.33,15.96-55.81,16.79Z"/>
  <path class="cls-1" d="M351.72,78.17c-.23-.15-2.77,1.89-3.06,2.1-1.34.95-2.67,1.92-4,2.88-2.66,1.93-5.31,3.87-8.06,5.68-5.55,3.65-11.34,6.95-17.32,9.86-2.29,1.12-4.61,2.17-6.95,3.17-.53.23-5.06,1.7-5.06,1.7,0,0,53.9-.14,53.88-.21-3.04-11.42-2.06-19.22-1.32-19.98l-8.1-5.2Z"/>
  <path class="cls-4" d="M405.41,29.85s-14.61-5-27.57,10.64l-12.3,15.62h0s-8.71-.86-8.71-.86l-10.54,12.99,7.55,2.31,12.39,7.37-.12,10.46,13.15-10.34-.72-8.72h0s0,0,0,0l15.8-12.05c15.83-12.72,11.06-27.41,11.06-27.41ZM377.36,60.96c-.98.96-2.54.95-3.5-.03-.96-.98-.95-2.54.03-3.5.98-.96,2.54-.95,3.5.03.96.98.95,2.54-.03,3.5ZM386.86,52.57c-1.25,1.23-3.25,1.21-4.48-.03-1.23-1.25-1.21-3.25.03-4.48s3.25-1.21,4.48.03c1.23,1.25,1.21,3.25-.03,4.48Z"/>
  <path class="cls-3" d="M93.66,67.9c-2.98-2.19-6.76-3.79-11.33-4.81-2.48-.51-4.35-1.06-5.62-1.67-1.27-.6-1.9-1.38-1.9-2.33,0-.57.25-1.05.76-1.43.51-.38,1.14-.57,1.9-.57.89,0,1.62.27,2.19.81.57.54.86,1.22.86,2.05h16.95c0-2.86-.87-5.49-2.62-7.9-1.75-2.41-4.13-4.32-7.14-5.71-3.02-1.4-6.4-2.09-10.14-2.09s-6.82.6-9.81,1.81c-2.99,1.21-5.37,3.02-7.14,5.43-1.78,2.41-2.67,5.33-2.67,8.76,0,4.76,1.55,8.36,4.67,10.81,3.11,2.44,6.95,4.11,11.52,5,2.16.44,3.89.94,5.19,1.48,1.3.54,1.95,1.35,1.95,2.43,0,.64-.32,1.18-.95,1.62-.64.44-1.43.67-2.38.67-1.08,0-1.98-.35-2.71-1.05-.73-.7-1.1-1.55-1.1-2.57h-16.85c0,2.98.89,5.73,2.67,8.24,1.78,2.51,4.22,4.51,7.33,6,3.11,1.49,6.6,2.24,10.47,2.24s7.16-.65,10.24-1.95c3.08-1.3,5.54-3.2,7.38-5.71,1.84-2.51,2.76-5.51,2.76-9,0-4.82-1.49-8.33-4.48-10.52Z"/>
  <path class="cls-3" d="M145.94,47.57c-3.49-2.22-7.4-3.33-11.71-3.33-4,0-7.51,1.1-10.52,3.29-.58.42-1.13.89-1.67,1.38v-3.52h-17.14v66.65h17.14v-21.61c.53.49,1.08.95,1.67,1.38,3.01,2.19,6.52,3.29,10.52,3.29,4.32,0,8.22-1.11,11.71-3.33,3.49-2.22,6.24-5.27,8.24-9.14,2-3.87,3-8.19,3-12.95s-1-9.08-3-12.95c-2-3.87-4.75-6.92-8.24-9.14ZM138.42,74.19c-.76,1.37-1.81,2.43-3.14,3.19s-2.83,1.14-4.47,1.14-3.14-.38-4.47-1.14c-1.33-.76-2.38-1.82-3.14-3.19-.76-1.36-1.14-2.87-1.14-4.52s.38-3.16,1.14-4.52c.76-1.36,1.81-2.43,3.14-3.19,1.33-.76,2.82-1.14,4.47-1.14s3.14.38,4.47,1.14,2.38,1.83,3.14,3.19c.76,1.37,1.14,2.87,1.14,4.52s-.38,3.16-1.14,4.52Z"/>
  <path class="cls-3" d="M204.78,45.38h-40.66v15.43h23.52v3.24h-10.57c-3.11,0-5.92.68-8.43,2.05-2.51,1.37-4.49,3.22-5.95,5.57-1.46,2.35-2.19,4.98-2.19,7.9s.73,5.56,2.19,7.9c1.46,2.35,3.44,4.21,5.95,5.57,2.51,1.36,5.32,2.05,8.43,2.05,3.3,0,6.25-.7,8.85-2.09,1.5-.8,2.78-1.8,3.9-2.94v3.89h19.71v-15.62h-4.76v-32.95ZM185.17,82.42c-.76.32-1.59.48-2.48.48-.83,0-1.59-.16-2.29-.48-.7-.32-1.25-.78-1.67-1.38-.41-.6-.62-1.25-.62-1.95s.21-1.35.62-1.95c.41-.6.97-1.06,1.67-1.38.7-.32,1.46-.48,2.29-.48h4.95v3.81c0,.7-.22,1.35-.67,1.95-.45.6-1.05,1.06-1.81,1.38Z"/>
  <path class="cls-3" d="M234.2,61.95c1.33-.76,2.82-1.14,4.48-1.14s3.25.41,4.62,1.24c1.36.83,2.43,1.94,3.19,3.33h18.19c-.63-4.06-2.16-7.7-4.57-10.9-2.41-3.2-5.47-5.71-9.19-7.52-3.71-1.81-7.79-2.71-12.24-2.71-4.95,0-9.44,1.11-13.47,3.33-4.03,2.22-7.19,5.27-9.47,9.14-2.29,3.87-3.43,8.19-3.43,12.95s1.14,9.08,3.43,12.95c2.29,3.87,5.44,6.92,9.47,9.14,4.03,2.22,8.52,3.33,13.47,3.33,4.44,0,8.52-.9,12.24-2.71,3.71-1.81,6.78-4.32,9.19-7.52,2.41-3.2,3.94-6.84,4.57-10.9h-18.19c-.76,1.4-1.83,2.51-3.19,3.33-1.37.83-2.9,1.24-4.62,1.24s-3.14-.38-4.48-1.14c-1.33-.76-2.38-1.82-3.14-3.19-.76-1.36-1.14-2.87-1.14-4.52s.38-3.16,1.14-4.52c.76-1.36,1.81-2.43,3.14-3.19Z"/>
  <path class="cls-3" d="M308.23,47.57c-4.03-2.22-8.52-3.33-13.47-3.33s-9.44,1.11-13.47,3.33c-4.03,2.22-7.19,5.27-9.47,9.14-2.28,3.87-3.43,8.19-3.43,12.95s1.14,9.08,3.43,12.95c2.29,3.87,5.44,6.92,9.47,9.14s8.52,3.33,13.47,3.33c6.09,0,11.44-1.59,16.04-4.76,4.6-3.17,7.76-7.36,9.47-12.57h-18c-.51.76-1.43,1.43-2.76,2s-2.76.86-4.28.86c-1.84,0-3.46-.44-4.86-1.33-1.4-.89-2.48-2.16-3.24-3.81-.14-.3-.25-.63-.37-.95h33.98c.25-1.08.38-2.57.38-4.47,0-4.89-1.14-9.3-3.43-13.24-2.29-3.94-5.44-7.01-9.48-9.24ZM290.29,60.05c1.33-.89,2.82-1.33,4.47-1.33s3.14.41,4.47,1.24c1.33.83,2.38,2.02,3.14,3.57.19.38.35.78.49,1.19h-16.04c.1-.27.19-.55.31-.81.76-1.68,1.81-2.97,3.14-3.86Z"/>
</svg>