<?xml version="1.0" encoding="UTF-8"?>
<svg id="Capa_1" xmlns="http://www.w3.org/2000/svg" viewBox="0 0 420.03 232.5">
  <defs>
    <style>
      .cls-1, .cls-2 {
        fill: #2d2d2d;
      }

      .cls-2 {
        fill-rule: evenodd;
      }
    </style>
  </defs>
  <path class="cls-1" d="M101.19,71.03c-2.79-2.05-6.32-3.55-10.6-4.5-2.32-.47-4.07-.99-5.25-1.56-1.19-.56-1.78-1.29-1.78-2.18,0-.53.24-.98.71-1.34.47-.36,1.07-.53,1.78-.53.83,0,1.51.25,2.05.76.54.51.8,1.14.8,1.92h15.85c0-2.67-.82-5.14-2.45-7.39-1.63-2.26-3.86-4.04-6.68-5.34-2.82-1.31-5.98-1.96-9.49-1.96s-6.38.57-9.17,1.69c-2.79,1.13-5.02,2.82-6.68,5.08-1.66,2.26-2.49,4.99-2.49,8.19,0,4.45,1.45,7.82,4.36,10.11,2.91,2.29,6.5,3.84,10.78,4.68,2.02.42,3.64.88,4.85,1.38,1.22.5,1.83,1.26,1.83,2.27,0,.59-.3,1.1-.89,1.51-.59.42-1.34.62-2.23.62-1.01,0-1.86-.33-2.54-.98-.68-.65-1.02-1.45-1.02-2.4h-15.76c0,2.79.83,5.36,2.49,7.7,1.66,2.35,3.95,4.22,6.86,5.61,2.91,1.39,6.17,2.09,9.8,2.09s6.69-.61,9.57-1.83c2.88-1.22,5.18-3,6.9-5.34,1.72-2.34,2.58-5.15,2.58-8.42,0-4.51-1.4-7.79-4.19-9.84Z"/>
  <path class="cls-1" d="M150.08,52.02c-3.27-2.08-6.92-3.12-10.95-3.12-3.74,0-7.02,1.02-9.84,3.07-.55.4-1.06.83-1.56,1.29v-3.29h-16.03v62.34h16.03v-20.21c.5.46,1.01.89,1.56,1.29,2.82,2.05,6.1,3.07,9.84,3.07,4.04,0,7.69-1.04,10.95-3.12,3.26-2.08,5.83-4.93,7.7-8.55,1.87-3.62,2.81-7.66,2.81-12.11s-.94-8.49-2.81-12.11c-1.87-3.62-4.44-6.47-7.7-8.55ZM143.05,76.91c-.71,1.28-1.69,2.27-2.94,2.98s-2.64,1.07-4.19,1.07-2.94-.36-4.19-1.07c-1.25-.71-2.23-1.71-2.94-2.98-.71-1.28-1.07-2.69-1.07-4.23s.36-2.95,1.07-4.23c.71-1.28,1.69-2.27,2.94-2.98,1.25-.71,2.64-1.07,4.19-1.07s2.94.36,4.19,1.07,2.23,1.71,2.94,2.98c.71,1.28,1.07,2.69,1.07,4.23s-.36,2.95-1.07,4.23Z"/>
  <path class="cls-1" d="M205.12,49.97h-38.03v14.43h22v3.03h-9.89c-2.91,0-5.54.64-7.88,1.91-2.35,1.28-4.2,3.01-5.57,5.21-1.37,2.2-2.05,4.66-2.05,7.39s.68,5.2,2.05,7.39c1.37,2.2,3.22,3.93,5.57,5.21,2.34,1.28,4.97,1.92,7.88,1.92,3.09,0,5.85-.65,8.28-1.96,1.4-.75,2.6-1.68,3.65-2.75v3.64h18.44v-14.61h-4.45v-30.81ZM186.78,84.61c-.71.3-1.49.45-2.32.45-.77,0-1.49-.15-2.14-.45-.65-.3-1.17-.73-1.56-1.29-.39-.56-.58-1.17-.58-1.83s.19-1.26.58-1.83c.39-.56.9-.99,1.56-1.29.65-.3,1.37-.45,2.14-.45h4.63v3.56c0,.65-.21,1.26-.62,1.83-.42.56-.98,1-1.69,1.29Z"/>
  <path class="cls-1" d="M232.64,65.46c1.25-.71,2.64-1.07,4.19-1.07s3.04.39,4.32,1.16c1.28.77,2.27,1.81,2.98,3.12h17.01c-.59-3.8-2.02-7.2-4.28-10.2-2.26-3-5.12-5.34-8.59-7.04-3.47-1.69-7.29-2.54-11.44-2.54-4.63,0-8.83,1.04-12.6,3.12-3.77,2.08-6.72,4.93-8.86,8.55-2.14,3.62-3.21,7.66-3.21,12.11s1.07,8.49,3.21,12.11c2.14,3.62,5.09,6.47,8.86,8.55,3.77,2.08,7.97,3.12,12.6,3.12,4.16,0,7.97-.85,11.44-2.54,3.47-1.69,6.34-4.04,8.59-7.04,2.26-3,3.68-6.4,4.28-10.2h-17.01c-.71,1.31-1.71,2.35-2.98,3.12-1.28.77-2.72,1.16-4.32,1.16s-2.94-.36-4.19-1.07c-1.25-.71-2.23-1.71-2.94-2.98-.71-1.28-1.07-2.69-1.07-4.23s.36-2.95,1.07-4.23c.71-1.28,1.69-2.27,2.94-2.98Z"/>
  <path class="cls-1" d="M313.95,73.03c0-4.57-1.07-8.7-3.21-12.38-2.14-3.68-5.09-6.56-8.86-8.64-3.77-2.08-7.97-3.12-12.6-3.12s-8.83,1.04-12.6,3.12c-3.77,2.08-6.72,4.93-8.86,8.55-2.14,3.62-3.21,7.66-3.21,12.11s1.07,8.49,3.21,12.11c2.14,3.62,5.09,6.47,8.86,8.55s7.97,3.12,12.6,3.12c5.7,0,10.7-1.48,15.01-4.45,4.3-2.97,7.26-6.89,8.86-11.76h-16.83c-.48.71-1.34,1.34-2.58,1.87s-2.58.8-4.01.8c-1.72,0-3.24-.42-4.54-1.25-1.31-.83-2.32-2.02-3.03-3.56-.13-.28-.24-.59-.34-.89h31.78c.24-1.01.36-2.4.36-4.19ZM285.1,63.68c1.25-.83,2.64-1.25,4.19-1.25s2.94.39,4.19,1.16c1.25.77,2.23,1.89,2.94,3.34.17.36.33.73.46,1.11h-15c.09-.25.18-.51.29-.76.71-1.57,1.69-2.77,2.94-3.61Z"/>
  <g>
    <path class="cls-1" d="M72.38,162.51h8.99l-1.89,1.89v-46.1h4.26v48.13h-11.36v-3.92ZM79.48,109.52c-.59-.58-.88-1.28-.88-2.1,0-.86.29-1.58.88-2.16.58-.59,1.31-.88,2.16-.88s1.58.29,2.16.88c.58.59.88,1.31.88,2.16,0,.81-.29,1.51-.88,2.1-.59.59-1.31.88-2.16.88s-1.58-.29-2.16-.88Z"/>
    <path class="cls-1" d="M101.01,151.22c-2.77-1.58-4.96-3.74-6.56-6.49-1.6-2.75-2.4-5.81-2.4-9.19s.8-6.44,2.4-9.19c1.6-2.75,3.79-4.91,6.56-6.49,2.77-1.58,5.87-2.37,9.29-2.37s6.52.79,9.29,2.37c2.77,1.58,4.96,3.74,6.56,6.49,1.6,2.75,2.4,5.81,2.4,9.19s-.8,6.45-2.4,9.19c-1.6,2.75-3.79,4.91-6.56,6.49s-5.87,2.37-9.29,2.37-6.52-.79-9.29-2.37ZM117.37,147.64c2.1-1.22,3.75-2.88,4.97-5,1.22-2.12,1.83-4.48,1.83-7.1s-.61-4.98-1.83-7.1c-1.22-2.12-2.87-3.79-4.97-5s-4.45-1.83-7.06-1.83-4.97.61-7.06,1.83c-2.09,1.22-3.75,2.88-4.97,5-1.22,2.12-1.83,4.48-1.83,7.1s.61,4.98,1.83,7.1c1.22,2.12,2.87,3.79,4.97,5,2.1,1.22,4.45,1.83,7.06,1.83s4.97-.61,7.06-1.83Z"/>
    <path class="cls-1" d="M143.05,151.87c-2.1-1.15-3.72-2.77-4.87-4.87s-1.72-4.52-1.72-7.27v-21.43h4.26v20.28c0,3.29.98,5.93,2.94,7.91,1.96,1.98,4.58,2.97,7.88,2.97,2.25,0,4.22-.46,5.92-1.39,1.69-.92,3.01-2.21,3.95-3.85.95-1.64,1.42-3.57,1.42-5.78l2.16.54c-.23,2.97-.97,5.57-2.23,7.77-1.26,2.21-2.96,3.9-5.1,5.07-2.14,1.17-4.61,1.76-7.4,1.76s-5.1-.58-7.2-1.72ZM162.83,118.3h4.26v34.47h-4.26v-34.47Z"/>
    <path class="cls-1" d="M177.63,118.3h4.26v34.47h-4.26v-34.47ZM181.95,125.33c1.22-2.43,2.85-4.3,4.9-5.61,2.05-1.31,4.4-1.96,7.06-1.96v4.39c-2.43,0-4.56.53-6.39,1.59-1.83,1.06-3.22,2.56-4.19,4.5-.97,1.94-1.45,4.19-1.45,6.76l-2.1-1.22c.23-3.2.95-6.02,2.16-8.45Z"/>
    <path class="cls-1" d="M201.42,118.3h4.26v34.47h-4.26v-34.47ZM225.89,124.73c-2.07-2.07-4.82-3.11-8.25-3.11-2.39,0-4.48.47-6.29,1.42-1.8.95-3.2,2.3-4.19,4.06-.99,1.76-1.49,3.79-1.49,6.08l-2.1-.74c.18-3.06.93-5.71,2.26-7.94,1.33-2.23,3.11-3.96,5.34-5.17,2.23-1.22,4.79-1.83,7.67-1.83s5.35.6,7.54,1.79c2.19,1.19,3.88,2.87,5.07,5.04,1.19,2.16,1.79,4.66,1.79,7.5v20.96h-4.26v-19.74c0-3.47-1.04-6.24-3.11-8.31Z"/>
    <path class="cls-1" d="M250.13,151.22c-2.77-1.58-4.96-3.74-6.56-6.49-1.6-2.75-2.4-5.81-2.4-9.19s.8-6.44,2.4-9.19c1.6-2.75,3.79-4.91,6.56-6.49,2.77-1.58,5.87-2.37,9.29-2.37s6.46.79,9.23,2.37c2.77,1.58,4.96,3.74,6.56,6.49,1.6,2.75,2.4,5.81,2.4,9.19,0,.68-.02,1.26-.07,1.76h-32.78v-3.79h29.47l-1.01,2.03v-.54c-.04-2.57-.68-4.89-1.89-6.96-1.22-2.07-2.87-3.7-4.97-4.87-2.1-1.17-4.41-1.76-6.93-1.76s-4.97.61-7.06,1.83-3.75,2.91-4.97,5.07-1.83,4.57-1.83,7.23.61,5.07,1.83,7.23,2.87,3.85,4.97,5.07,4.45,1.83,7.06,1.83c2.97,0,5.61-.74,7.91-2.23s3.94-3.45,4.93-5.88h4.66c-1.26,3.61-3.46,6.51-6.59,8.72-3.13,2.21-6.77,3.31-10.92,3.31-3.42,0-6.52-.79-9.29-2.37Z"/>
    <path class="cls-1" d="M284.16,161.7h8.25l-1.76,1.22,5.14-11.15v1.96l-15.95-35.42h4.87l13.72,31.09h-1.35l13.72-31.09h4.73l-21.36,47.32h-10v-3.92Z"/>
  </g>
  <path class="cls-1" d="M120.68,174.26c-20.51,6.53-79.7,16.04-84.08,11.35-2.01-2.15-.32-5.77.68-8.1.21-.5.43-1,.67-1.49,3.61-7.29,9.21-13.86,14.58-20.1,5.56-6.4,11.6-12.37,17.59-18.39l.06-2.57c-12.92,8.85-55.4,37.64-40.39,58.06s170.14-26.77,192.45-33.85l-49.36-.61c-2.31.8-49.88,14.93-52.2,15.7Z"/>
  <path class="cls-1" d="M342.55,80.63c-.22-.14-2.59,1.77-2.86,1.96-1.25.89-2.5,1.79-3.74,2.7-2.49,1.81-4.96,3.62-7.54,5.31-5.19,3.42-10.61,6.5-16.2,9.22-2.14,1.04-4.31,2.03-6.5,2.97-.49.21-4.73,1.59-4.73,1.59,0,0,50.41-.13,50.39-.2-2.85-10.69-1.92-17.98-1.24-18.69l-7.58-4.86Z"/>
  <path class="cls-2" d="M392.78,35.44s-13.67-4.67-25.79,9.95l-11.5,14.61h0s-8.14-.8-8.14-.8l-9.86,12.15,7.07,2.16,11.59,6.89-.11,9.78,12.3-9.67-.68-8.16h0s0,0,0,0l14.78-11.27c14.81-11.9,10.35-25.63,10.35-25.63ZM366.53,64.54c-.91.9-2.38.89-3.28-.03-.9-.91-.89-2.38.03-3.28.91-.9,2.38-.89,3.28.03.9.91.89,2.38-.03,3.28ZM375.42,56.68c-1.17,1.15-3.04,1.13-4.19-.03-1.15-1.17-1.13-3.04.03-4.19s3.04-1.13,4.19.03c1.15,1.17,1.13,3.04-.03,4.19Z"/>
</svg>